<svg width="223" height="223" viewBox="0 0 223 223" fill="none" xmlns="http://www.w3.org/2000/svg">
    <path fill-rule="evenodd" clip-rule="evenodd"
          d="M30.6925 187.375C30.9149 184.596 32.0096 182.226 33.9764 180.265C36.2017 178.046 38.9429 176.937 42.2 176.937H180.8C184.072 176.937 186.817 178.046 189.035 180.265C190.995 182.226 192.086 184.596 192.308 187.375C211.327 167.377 223 140.325 223 110.548C223 94.9658 219.804 80.1302 214.031 66.6611C212.653 66.9955 211.201 67.1614 209.675 67.159C209.29 67.159 208.859 67.1128 208.381 67.0203C207.904 66.9279 207.469 66.8778 207.076 66.8701L195.526 140.248C194.564 145.833 191.919 150.455 187.591 154.114C183.264 157.774 178.305 159.603 172.715 159.603H50.285C44.7025 159.603 39.7476 157.774 35.4202 154.114C31.0928 150.455 28.444 145.833 27.4738 140.248L15.9238 66.8701C15.5388 66.8701 15.1076 66.9202 14.6302 67.0203C14.1528 67.1205 13.7177 67.1667 13.325 67.159C11.8017 67.159 10.3509 66.9903 8.9726 66.653C3.19762 80.1243 0 94.9627 0 110.548C0 140.325 11.6729 167.377 30.6925 187.375ZM26.4438 38.4493C43.9196 17.8533 68.7423 3.68723 96.8633 0C95.0711 2.74433 94.175 5.87141 94.175 9.38126C94.175 12.2702 94.8487 14.9664 96.1962 17.4701C97.5437 19.9738 99.2762 21.9961 101.394 23.5368L65.3 72.9368L29.2063 56.759C29.5836 55.796 29.9185 54.7368 30.2111 53.5812C30.5037 52.4257 30.65 51.1738 30.65 49.8257C30.6711 45.4486 29.269 41.6565 26.4438 38.4493ZM126.149 0.00160337C127.944 2.74292 128.836 5.86948 128.825 9.38126C128.825 12.2702 128.151 14.9664 126.804 17.4701C125.456 19.9738 123.724 21.9961 121.606 23.5368L157.7 72.9368L193.794 56.759C193.409 55.796 193.07 54.7368 192.777 53.5812C192.485 52.4257 192.342 51.1738 192.35 49.8257C192.35 45.4349 193.752 41.6431 196.557 38.4503C179.084 17.8567 154.265 3.69139 126.149 0.00160337ZM178.01 200.048H44.9901C63.558 213.869 86.5738 222.048 111.5 222.048C136.426 222.048 159.442 213.869 178.01 200.048Z"
          fill="#7851A9"/>
    <path d="M62.2422 133C61.7083 133 61.4414 132.727 61.4414 132.18C61.4414 131.49 61.4544 130.806 61.4805 130.129C61.5065 129.439 61.526 128.755 61.5391 128.078C61.5651 126.568 61.5846 125.064 61.5977 123.566C61.6237 122.056 61.6367 120.552 61.6367 119.055C61.6367 117.609 61.6302 116.164 61.6172 114.719C61.6042 113.273 61.5846 111.828 61.5586 110.383C61.5456 109.732 61.526 109.074 61.5 108.41C61.474 107.746 61.4609 107.089 61.4609 106.438C61.4609 105.891 61.7279 105.617 62.2617 105.617H69.5859C71.7734 105.617 73.8307 105.93 75.7578 106.555C77.6979 107.18 79.3841 108.176 80.8164 109.543C82.2487 110.897 83.3034 112.681 83.9805 114.895C84.4622 116.483 84.7031 118.098 84.7031 119.738C84.7031 122.408 84.0977 124.738 82.8867 126.73C81.6888 128.71 80.0482 130.253 77.9648 131.359C75.8945 132.453 73.5508 133 70.9336 133H62.2422ZM66.4609 128.293H70.0742C72.9779 128.293 75.2956 127.531 77.0273 126.008C78.7721 124.471 79.6445 122.212 79.6445 119.23C79.6445 117.538 79.2865 116.021 78.5703 114.68C77.8542 113.326 76.8516 112.258 75.5625 111.477C74.2734 110.695 72.763 110.305 71.0312 110.305H66.4805C66.4935 111.685 66.5 113.072 66.5 114.465C66.513 115.858 66.5195 117.251 66.5195 118.645C66.5195 121.848 66.5 125.064 66.4609 128.293ZM87.75 119.348C87.75 117.525 88.0625 115.78 88.6875 114.113C89.3255 112.434 90.2174 110.936 91.3633 109.621C92.5221 108.306 93.8893 107.271 95.4648 106.516C97.0534 105.747 98.7982 105.363 100.699 105.363C102.6 105.363 104.345 105.747 105.934 106.516C107.522 107.284 108.896 108.332 110.055 109.66C111.227 110.975 112.132 112.473 112.77 114.152C113.421 115.832 113.746 117.583 113.746 119.406C113.746 121.229 113.421 122.974 112.77 124.641C112.132 126.294 111.227 127.772 110.055 129.074C108.883 130.376 107.503 131.405 105.914 132.16C104.326 132.915 102.587 133.293 100.699 133.293C98.7721 133.293 97.0143 132.922 95.4258 132.18C93.8503 131.424 92.4896 130.396 91.3438 129.094C90.1979 127.792 89.3125 126.307 88.6875 124.641C88.0625 122.961 87.75 121.197 87.75 119.348ZM100.875 128.586C102.542 128.586 103.948 128.13 105.094 127.219C106.253 126.307 107.132 125.142 107.73 123.723C108.342 122.303 108.648 120.845 108.648 119.348C108.648 117.811 108.336 116.333 107.711 114.914C107.086 113.495 106.181 112.329 104.996 111.418C103.824 110.493 102.398 110.031 100.719 110.031C99.0781 110.031 97.6589 110.487 96.4609 111.398C95.276 112.31 94.3646 113.475 93.7266 114.895C93.0885 116.301 92.7695 117.766 92.7695 119.289C92.7695 120.826 93.0951 122.31 93.7461 123.742C94.4102 125.161 95.3477 126.327 96.5586 127.238C97.7695 128.137 99.2083 128.586 100.875 128.586ZM123.512 118.957C123.512 118.905 123.362 118.605 123.062 118.059C122.763 117.512 122.366 116.815 121.871 115.969C121.389 115.122 120.868 114.217 120.309 113.254C119.749 112.29 119.202 111.359 118.668 110.461C118.147 109.549 117.698 108.768 117.32 108.117C116.943 107.466 116.695 107.036 116.578 106.828C116.526 106.724 116.467 106.613 116.402 106.496C116.35 106.379 116.324 106.262 116.324 106.145C116.324 105.897 116.435 105.747 116.656 105.695C116.891 105.643 117.092 105.617 117.262 105.617H121.734C122.008 105.617 122.236 105.747 122.418 106.008C122.678 106.372 122.919 106.77 123.141 107.199C123.362 107.616 123.59 108.02 123.824 108.41C124.384 109.387 124.938 110.376 125.484 111.379C126.031 112.368 126.598 113.345 127.184 114.309C127.249 114.439 127.32 114.504 127.398 114.504C127.464 114.504 127.509 114.478 127.535 114.426C127.561 114.374 127.581 114.328 127.594 114.289C128.036 113.365 128.473 112.44 128.902 111.516C129.332 110.578 129.762 109.647 130.191 108.723C130.4 108.293 130.602 107.844 130.797 107.375C130.992 106.906 131.214 106.47 131.461 106.066C131.643 105.767 131.884 105.617 132.184 105.617H136.305C136.487 105.617 136.689 105.643 136.91 105.695C137.132 105.747 137.242 105.897 137.242 106.145C137.242 106.262 137.216 106.379 137.164 106.496C137.112 106.613 137.053 106.724 136.988 106.828C136.871 107.036 136.617 107.473 136.227 108.137C135.849 108.801 135.393 109.595 134.859 110.52C134.326 111.431 133.772 112.382 133.199 113.371C132.639 114.348 132.112 115.266 131.617 116.125C131.122 116.984 130.719 117.694 130.406 118.254C130.107 118.801 129.957 119.1 129.957 119.152C129.957 119.204 130.113 119.517 130.426 120.09C130.751 120.663 131.168 121.392 131.676 122.277C132.184 123.163 132.73 124.107 133.316 125.109C133.902 126.112 134.469 127.082 135.016 128.02C135.562 128.957 136.038 129.764 136.441 130.441C136.845 131.118 137.105 131.568 137.223 131.789C137.288 131.893 137.346 132.004 137.398 132.121C137.451 132.238 137.477 132.355 137.477 132.473C137.477 132.72 137.359 132.87 137.125 132.922C136.904 132.974 136.702 133 136.52 133H131.988C131.702 133 131.467 132.87 131.285 132.609C131.012 132.219 130.758 131.802 130.523 131.359C130.302 130.917 130.068 130.487 129.82 130.07C129.234 129.042 128.655 128.013 128.082 126.984C127.522 125.943 126.936 124.914 126.324 123.898C126.259 123.768 126.181 123.703 126.09 123.703C126.038 123.703 125.973 123.775 125.895 123.918C125.413 124.934 124.938 125.956 124.469 126.984C124.013 128 123.551 129.022 123.082 130.051C122.887 130.454 122.698 130.878 122.516 131.32C122.333 131.75 122.132 132.16 121.91 132.551C121.728 132.85 121.487 133 121.188 133H116.91C116.741 133 116.539 132.974 116.305 132.922C116.083 132.87 115.973 132.72 115.973 132.473C115.973 132.355 115.999 132.238 116.051 132.121C116.116 132.004 116.174 131.893 116.227 131.789C116.344 131.568 116.604 131.112 117.008 130.422C117.411 129.732 117.887 128.911 118.434 127.961C118.98 127.01 119.547 126.027 120.133 125.012C120.732 123.983 121.285 123.02 121.793 122.121C122.301 121.223 122.711 120.487 123.023 119.914C123.349 119.328 123.512 119.009 123.512 118.957ZM139.742 133C139.56 133 139.365 132.974 139.156 132.922C138.948 132.857 138.844 132.701 138.844 132.453C138.844 132.349 138.863 132.245 138.902 132.141C138.941 132.036 138.98 131.939 139.02 131.848C140.165 129.374 141.298 126.9 142.418 124.426C143.551 121.952 144.664 119.465 145.758 116.965C146.656 114.908 147.548 112.85 148.434 110.793C149.319 108.723 150.23 106.672 151.168 104.641C151.207 104.562 151.272 104.523 151.363 104.523C151.454 104.523 151.52 104.562 151.559 104.641C152.496 106.672 153.408 108.723 154.293 110.793C155.178 112.85 156.07 114.908 156.969 116.965C158.062 119.465 159.169 121.952 160.289 124.426C161.422 126.9 162.561 129.374 163.707 131.848C163.746 131.939 163.785 132.036 163.824 132.141C163.863 132.245 163.883 132.349 163.883 132.453C163.883 132.701 163.779 132.857 163.57 132.922C163.362 132.974 163.167 133 162.984 133H159.039C158.714 133 158.466 132.837 158.297 132.512C158.193 132.303 158.095 132.082 158.004 131.848C157.913 131.613 157.822 131.392 157.73 131.184C157.444 130.533 157.164 129.868 156.891 129.191C156.63 128.514 156.35 127.85 156.051 127.199C156.012 127.095 155.94 127.043 155.836 127.043H146.168C146.064 127.043 145.992 127.095 145.953 127.199C145.641 127.85 145.341 128.514 145.055 129.191C144.781 129.868 144.495 130.539 144.195 131.203C144.104 131.411 144.007 131.633 143.902 131.867C143.811 132.102 143.707 132.323 143.59 132.531C143.421 132.844 143.18 133 142.867 133H139.742ZM147.789 122.961H154.293C153.772 121.659 153.245 120.363 152.711 119.074C152.177 117.772 151.643 116.47 151.109 115.168C150.562 116.47 150.009 117.772 149.449 119.074C148.902 120.363 148.349 121.659 147.789 122.961Z"
          fill="#7851A9"/>
</svg>
